<svg xmlns="http://www.w3.org/2000/svg" xmlns:xlink="http://www.w3.org/1999/xlink" width="1366" zoomAndPan="magnify" viewBox="0 0 1024.5 576" height="768" preserveAspectRatio="xMidYMid meet" version="1.0"><defs><g/><clipPath id="90b63cd939"><path d="M 758.757812 357.757812 L 804.492188 357.757812 L 804.492188 381.96875 L 758.757812 381.96875 Z M 758.757812 357.757812 " clip-rule="nonzero"/></clipPath></defs><g clip-path="url(#90b63cd939)"><path fill="#000000" d="M 781.507812 381.859375 C 781.175781 381.859375 780.894531 381.742188 780.660156 381.507812 L 759.109375 359.875 C 758.996094 359.761719 758.910156 359.632812 758.847656 359.484375 C 758.789062 359.335938 758.757812 359.183594 758.757812 359.023438 C 758.757812 358.863281 758.789062 358.710938 758.847656 358.5625 C 758.910156 358.414062 758.996094 358.285156 759.109375 358.171875 C 759.222656 358.058594 759.351562 357.96875 759.496094 357.910156 C 759.644531 357.847656 759.796875 357.816406 759.957031 357.816406 C 760.113281 357.816406 760.269531 357.847656 760.414062 357.910156 C 760.5625 357.96875 760.691406 358.058594 760.804688 358.171875 L 781.507812 378.953125 L 802.210938 358.171875 C 802.320312 358.058594 802.453125 357.96875 802.597656 357.910156 C 802.746094 357.847656 802.898438 357.816406 803.058594 357.816406 C 803.214844 357.816406 803.367188 357.847656 803.515625 357.910156 C 803.664062 357.96875 803.792969 358.058594 803.90625 358.171875 C 804.015625 358.285156 804.105469 358.414062 804.164062 358.5625 C 804.226562 358.710938 804.253906 358.863281 804.253906 359.023438 C 804.253906 359.183594 804.226562 359.335938 804.164062 359.484375 C 804.105469 359.632812 804.015625 359.761719 803.90625 359.875 L 782.355469 381.507812 C 782.121094 381.742188 781.835938 381.859375 781.507812 381.859375 Z M 781.507812 381.859375 " fill-opacity="1" fill-rule="nonzero"/></g><g fill="#000009" fill-opacity="1"><g transform="translate(695.178493, 192.346573)"><g><path d="M 0.15625 -35.5 L 7.578125 -35.5 L 7.578125 -34.96875 C 7.328125 -34.9375 7.09375 -34.828125 6.875 -34.640625 C 6.664062 -34.460938 6.5625 -34.195312 6.5625 -33.84375 C 6.5625 -33.65625 6.613281 -33.457031 6.71875 -33.25 L 14.796875 -19.09375 L 22.546875 -32.5 C 22.679688 -32.78125 22.773438 -32.992188 22.828125 -33.140625 C 22.890625 -33.285156 22.921875 -33.460938 22.921875 -33.671875 C 22.847656 -34.242188 22.640625 -34.601562 22.296875 -34.75 C 21.953125 -34.894531 21.75 -34.96875 21.6875 -34.96875 L 21.6875 -35.5 L 27.4375 -35.5 L 27.4375 -34.96875 C 26.894531 -34.96875 26.347656 -34.632812 25.796875 -33.96875 C 25.242188 -33.3125 24.769531 -32.640625 24.375 -31.953125 L 15.984375 -17.4375 L 15.984375 -3.5 C 15.984375 -3.207031 16.023438 -2.898438 16.109375 -2.578125 C 16.203125 -2.253906 16.316406 -1.941406 16.453125 -1.640625 C 16.597656 -1.335938 16.78125 -1.078125 17 -0.859375 C 17.21875 -0.640625 17.46875 -0.53125 17.75 -0.53125 L 18.015625 -0.53125 L 18.015625 0 L 10.328125 0 L 10.328125 -0.53125 L 10.59375 -0.53125 C 10.882812 -0.53125 11.132812 -0.628906 11.34375 -0.828125 C 11.5625 -1.023438 11.75 -1.273438 11.90625 -1.578125 C 12.070312 -1.890625 12.191406 -2.210938 12.265625 -2.546875 C 12.335938 -2.890625 12.375 -3.207031 12.375 -3.5 L 12.375 -16.953125 L 3.71875 -31.796875 C 3.53125 -32.078125 3.3125 -32.394531 3.0625 -32.75 C 2.8125 -33.113281 2.539062 -33.457031 2.25 -33.78125 C 1.96875 -34.101562 1.664062 -34.378906 1.34375 -34.609375 C 1.019531 -34.847656 0.71875 -34.96875 0.4375 -34.96875 L 0.15625 -34.96875 Z M 0.15625 -35.5 "/></g></g></g><g fill="#000009" fill-opacity="1"><g transform="translate(724.177458, 192.346573)"><g><path d="M 2.421875 -0.53125 L 2.6875 -0.53125 C 2.976562 -0.53125 3.226562 -0.628906 3.4375 -0.828125 C 3.65625 -1.023438 3.84375 -1.265625 4 -1.546875 C 4.164062 -1.835938 4.289062 -2.144531 4.375 -2.46875 C 4.46875 -2.789062 4.515625 -3.097656 4.515625 -3.390625 L 4.515625 -32.171875 C 4.515625 -32.421875 4.46875 -32.707031 4.375 -33.03125 C 4.289062 -33.351562 4.164062 -33.65625 4 -33.9375 C 3.84375 -34.226562 3.65625 -34.472656 3.4375 -34.671875 C 3.226562 -34.867188 2.976562 -34.96875 2.6875 -34.96875 L 2.421875 -34.96875 L 2.421875 -35.5 L 23.125 -35.5 L 23.125 -30.5 L 22.59375 -30.5 C 22.519531 -31.320312 22.195312 -32.046875 21.625 -32.671875 C 21.050781 -33.304688 20.15625 -33.625 18.9375 -33.625 L 8.125 -33.625 L 8.125 -20.015625 L 17.046875 -20.015625 C 17.878906 -20.015625 18.570312 -20.265625 19.125 -20.765625 C 19.675781 -21.265625 19.953125 -21.859375 19.953125 -22.546875 L 20.5 -22.546875 L 20.5 -15.8125 L 19.953125 -15.8125 C 19.953125 -16.457031 19.679688 -17.015625 19.140625 -17.484375 C 18.609375 -17.953125 17.910156 -18.1875 17.046875 -18.1875 L 8.125 -18.1875 L 8.125 -1.890625 L 19.90625 -1.890625 C 20.582031 -1.890625 21.171875 -2.046875 21.671875 -2.359375 C 22.179688 -2.679688 22.601562 -3.066406 22.9375 -3.515625 C 23.28125 -3.972656 23.53125 -4.457031 23.6875 -4.96875 C 23.851562 -5.488281 23.9375 -5.929688 23.9375 -6.296875 L 24.484375 -6.296875 L 24.484375 0 L 2.421875 0 Z M 2.421875 -0.53125 "/></g></g></g><g fill="#000009" fill-opacity="1"><g transform="translate(750.809161, 192.346573)"><g><path d="M 4.03125 -35.5 L 11.78125 -35.5 L 11.78125 -34.96875 L 11.515625 -34.96875 C 11.222656 -34.96875 10.96875 -34.867188 10.75 -34.671875 C 10.539062 -34.472656 10.351562 -34.222656 10.1875 -33.921875 C 10.03125 -33.617188 9.90625 -33.304688 9.8125 -32.984375 C 9.726562 -32.660156 9.6875 -32.367188 9.6875 -32.109375 L 9.6875 -2.15625 C 9.6875 -1.007812 9.539062 0.046875 9.25 1.015625 C 8.96875 1.984375 8.582031 2.890625 8.09375 3.734375 C 7.613281 4.578125 7.078125 5.347656 6.484375 6.046875 C 5.890625 6.742188 5.269531 7.382812 4.625 7.96875 C 3.15625 9.289062 1.46875 10.398438 -0.4375 11.296875 L -0.703125 10.859375 C 0.554688 9.960938 1.671875 8.90625 2.640625 7.6875 C 3.460938 6.65625 4.234375 5.382812 4.953125 3.875 C 5.671875 2.363281 6.03125 0.625 6.03125 -1.34375 L 6.03125 -32.109375 C 6.03125 -32.367188 5.992188 -32.660156 5.921875 -32.984375 C 5.847656 -33.304688 5.726562 -33.617188 5.5625 -33.921875 C 5.40625 -34.222656 5.21875 -34.472656 5 -34.671875 C 4.789062 -34.867188 4.554688 -34.96875 4.296875 -34.96875 L 4.03125 -34.96875 Z M 4.03125 -35.5 "/></g></g></g><g fill="#000009" fill-opacity="1"><g transform="translate(765.87358, 192.346573)"><g><path d="M 2.640625 -35.5 L 10.328125 -35.5 L 10.328125 -34.96875 L 10.0625 -34.96875 C 9.8125 -34.96875 9.578125 -34.867188 9.359375 -34.671875 C 9.140625 -34.472656 8.957031 -34.238281 8.8125 -33.96875 C 8.675781 -33.695312 8.5625 -33.390625 8.46875 -33.046875 C 8.382812 -32.710938 8.34375 -32.421875 8.34375 -32.171875 L 8.34375 -3.5 C 8.34375 -3.207031 8.375 -2.890625 8.4375 -2.546875 C 8.507812 -2.210938 8.625 -1.898438 8.78125 -1.609375 C 8.945312 -1.328125 9.128906 -1.078125 9.328125 -0.859375 C 9.523438 -0.640625 9.769531 -0.53125 10.0625 -0.53125 L 10.328125 -0.53125 L 10.328125 0 L 2.640625 0 L 2.640625 -0.53125 L 2.90625 -0.53125 C 3.1875 -0.53125 3.4375 -0.628906 3.65625 -0.828125 C 3.875 -1.023438 4.0625 -1.273438 4.21875 -1.578125 C 4.382812 -1.890625 4.503906 -2.210938 4.578125 -2.546875 C 4.648438 -2.890625 4.6875 -3.207031 4.6875 -3.5 L 4.6875 -32.171875 C 4.6875 -32.421875 4.648438 -32.707031 4.578125 -33.03125 C 4.503906 -33.351562 4.382812 -33.65625 4.21875 -33.9375 C 4.0625 -34.226562 3.875 -34.472656 3.65625 -34.671875 C 3.4375 -34.867188 3.1875 -34.96875 2.90625 -34.96875 L 2.640625 -34.96875 Z M 2.640625 -35.5 "/></g></g></g><g fill="#000009" fill-opacity="1"><g transform="translate(779.485359, 192.346573)"><g><path d="M 2.359375 -0.53125 L 2.640625 -0.53125 C 2.890625 -0.53125 3.117188 -0.640625 3.328125 -0.859375 C 3.546875 -1.078125 3.734375 -1.328125 3.890625 -1.609375 C 4.054688 -1.898438 4.175781 -2.210938 4.25 -2.546875 C 4.320312 -2.890625 4.359375 -3.207031 4.359375 -3.5 L 4.359375 -32.171875 C 4.359375 -32.421875 4.320312 -32.707031 4.25 -33.03125 C 4.175781 -33.351562 4.066406 -33.65625 3.921875 -33.9375 C 3.785156 -34.226562 3.609375 -34.472656 3.390625 -34.671875 C 3.171875 -34.867188 2.921875 -34.96875 2.640625 -34.96875 L 2.359375 -34.96875 L 2.359375 -35.5 L 12.75 -35.5 C 15.582031 -35.5 18.128906 -35.003906 20.390625 -34.015625 C 22.648438 -33.035156 24.554688 -31.710938 26.109375 -30.046875 C 27.671875 -28.378906 28.863281 -26.46875 29.6875 -24.3125 C 30.519531 -22.164062 30.9375 -19.925781 30.9375 -17.59375 C 30.9375 -15.40625 30.539062 -13.257812 29.75 -11.15625 C 28.957031 -9.0625 27.769531 -7.1875 26.1875 -5.53125 C 24.613281 -3.882812 22.644531 -2.550781 20.28125 -1.53125 C 17.914062 -0.507812 15.171875 0 12.046875 0 L 2.359375 0 Z M 27.28125 -16.78125 C 27.28125 -19.082031 26.863281 -21.253906 26.03125 -23.296875 C 25.207031 -25.335938 24.050781 -27.117188 22.5625 -28.640625 C 21.070312 -30.171875 19.3125 -31.382812 17.28125 -32.28125 C 15.257812 -33.175781 13.066406 -33.625 10.703125 -33.625 L 7.96875 -33.625 L 7.96875 -1.890625 L 10.8125 -1.890625 C 12.75 -1.890625 14.691406 -2.179688 16.640625 -2.765625 C 18.597656 -3.359375 20.363281 -4.273438 21.9375 -5.515625 C 23.519531 -6.753906 24.804688 -8.304688 25.796875 -10.171875 C 26.785156 -12.035156 27.28125 -14.238281 27.28125 -16.78125 Z M 27.28125 -16.78125 "/></g></g></g><g fill="#000009" fill-opacity="1"><g transform="translate(813.165041, 192.346573)"><g><path d="M 2.421875 -0.53125 L 2.6875 -0.53125 C 2.976562 -0.53125 3.226562 -0.628906 3.4375 -0.828125 C 3.65625 -1.023438 3.84375 -1.265625 4 -1.546875 C 4.164062 -1.835938 4.289062 -2.144531 4.375 -2.46875 C 4.46875 -2.789062 4.515625 -3.097656 4.515625 -3.390625 L 4.515625 -32.171875 C 4.515625 -32.421875 4.46875 -32.707031 4.375 -33.03125 C 4.289062 -33.351562 4.164062 -33.65625 4 -33.9375 C 3.84375 -34.226562 3.65625 -34.472656 3.4375 -34.671875 C 3.226562 -34.867188 2.976562 -34.96875 2.6875 -34.96875 L 2.421875 -34.96875 L 2.421875 -35.5 L 23.125 -35.5 L 23.125 -30.5 L 22.59375 -30.5 C 22.519531 -31.320312 22.195312 -32.046875 21.625 -32.671875 C 21.050781 -33.304688 20.15625 -33.625 18.9375 -33.625 L 8.125 -33.625 L 8.125 -20.015625 L 17.046875 -20.015625 C 17.878906 -20.015625 18.570312 -20.265625 19.125 -20.765625 C 19.675781 -21.265625 19.953125 -21.859375 19.953125 -22.546875 L 20.5 -22.546875 L 20.5 -15.8125 L 19.953125 -15.8125 C 19.953125 -16.457031 19.679688 -17.015625 19.140625 -17.484375 C 18.609375 -17.953125 17.910156 -18.1875 17.046875 -18.1875 L 8.125 -18.1875 L 8.125 -1.890625 L 19.90625 -1.890625 C 20.582031 -1.890625 21.171875 -2.046875 21.671875 -2.359375 C 22.179688 -2.679688 22.601562 -3.066406 22.9375 -3.515625 C 23.28125 -3.972656 23.53125 -4.457031 23.6875 -4.96875 C 23.851562 -5.488281 23.9375 -5.929688 23.9375 -6.296875 L 24.484375 -6.296875 L 24.484375 0 L 2.421875 0 Z M 2.421875 -0.53125 "/></g></g></g><g fill="#000009" fill-opacity="1"><g transform="translate(839.802828, 192.346573)"><g/></g></g><g fill="#000009" fill-opacity="1"><g transform="translate(854.329231, 192.346573)"><g/></g></g><g fill="#abacac" fill-opacity="1"><g transform="translate(682.431399, 245.898612)"><g><path d="M 2.421875 -0.53125 L 2.6875 -0.53125 C 2.9375 -0.53125 3.171875 -0.640625 3.390625 -0.859375 C 3.609375 -1.078125 3.796875 -1.328125 3.953125 -1.609375 C 4.117188 -1.898438 4.234375 -2.210938 4.296875 -2.546875 C 4.367188 -2.890625 4.40625 -3.207031 4.40625 -3.5 L 4.40625 -32.109375 C 4.40625 -32.367188 4.367188 -32.660156 4.296875 -32.984375 C 4.234375 -33.304688 4.117188 -33.617188 3.953125 -33.921875 C 3.796875 -34.222656 3.597656 -34.472656 3.359375 -34.671875 C 3.128906 -34.867188 2.867188 -34.96875 2.578125 -34.96875 L 2.3125 -34.96875 L 2.3125 -35.5 L 11.140625 -35.5 C 14.472656 -35.5 17.078125 -34.765625 18.953125 -33.296875 C 20.835938 -31.828125 21.78125 -29.875 21.78125 -27.4375 C 21.78125 -26.394531 21.601562 -25.460938 21.25 -24.640625 C 20.894531 -23.816406 20.4375 -23.082031 19.875 -22.4375 C 19.320312 -21.789062 18.722656 -21.242188 18.078125 -20.796875 C 17.429688 -20.347656 16.820312 -19.976562 16.25 -19.6875 C 17.75 -19.40625 19 -18.921875 20 -18.234375 C 21.007812 -17.554688 21.828125 -16.773438 22.453125 -15.890625 C 23.085938 -15.015625 23.53125 -14.070312 23.78125 -13.0625 C 24.03125 -12.0625 24.15625 -11.078125 24.15625 -10.109375 C 24.15625 -8.242188 23.8125 -6.675781 23.125 -5.40625 C 22.445312 -4.132812 21.539062 -3.09375 20.40625 -2.28125 C 19.28125 -1.476562 17.988281 -0.894531 16.53125 -0.53125 C 15.082031 -0.175781 13.585938 0 12.046875 0 L 2.421875 0 Z M 20.5 -9.796875 C 20.207031 -12.554688 19.269531 -14.6875 17.6875 -16.1875 C 16.113281 -17.695312 13.894531 -18.453125 11.03125 -18.453125 L 8.015625 -18.453125 L 8.015625 -1.78125 L 11.140625 -1.78125 C 14.046875 -1.78125 16.332031 -2.429688 18 -3.734375 C 19.664062 -5.046875 20.5 -6.867188 20.5 -9.203125 Z M 18.296875 -26.953125 C 18.179688 -29.035156 17.453125 -30.6875 16.109375 -31.90625 C 14.765625 -33.125 12.960938 -33.734375 10.703125 -33.734375 L 8.015625 -33.734375 L 8.015625 -20.171875 L 10.8125 -20.171875 C 12.320312 -20.171875 13.550781 -20.367188 14.5 -20.765625 C 15.445312 -21.160156 16.207031 -21.671875 16.78125 -22.296875 C 17.351562 -22.921875 17.75 -23.609375 17.96875 -24.359375 C 18.1875 -25.117188 18.296875 -25.859375 18.296875 -26.578125 Z M 18.296875 -26.953125 "/></g></g></g><g fill="#abacac" fill-opacity="1"><g transform="translate(709.278314, 245.898612)"><g><path d="M 2.421875 -35.5 L 10.0625 -35.5 L 10.0625 -34.96875 L 9.796875 -34.96875 C 9.503906 -34.96875 9.25 -34.867188 9.03125 -34.671875 C 8.820312 -34.472656 8.632812 -34.226562 8.46875 -33.9375 C 8.3125 -33.65625 8.195312 -33.351562 8.125 -33.03125 C 8.050781 -32.707031 8.015625 -32.421875 8.015625 -32.171875 L 8.015625 -10.921875 C 8.015625 -9.523438 8.15625 -8.234375 8.4375 -7.046875 C 8.726562 -5.859375 9.210938 -4.832031 9.890625 -3.96875 C 10.578125 -3.113281 11.472656 -2.441406 12.578125 -1.953125 C 13.691406 -1.472656 15.054688 -1.234375 16.671875 -1.234375 C 18.460938 -1.234375 19.894531 -1.519531 20.96875 -2.09375 C 22.050781 -2.664062 22.878906 -3.410156 23.453125 -4.328125 C 24.023438 -5.242188 24.398438 -6.273438 24.578125 -7.421875 C 24.765625 -8.566406 24.859375 -9.695312 24.859375 -10.8125 L 24.859375 -32.171875 C 24.859375 -32.421875 24.820312 -32.707031 24.75 -33.03125 C 24.675781 -33.351562 24.554688 -33.65625 24.390625 -33.9375 C 24.234375 -34.226562 24.046875 -34.472656 23.828125 -34.671875 C 23.617188 -34.867188 23.382812 -34.96875 23.125 -34.96875 L 22.859375 -34.96875 L 22.859375 -35.5 L 28.734375 -35.5 L 28.734375 -34.96875 L 28.453125 -34.96875 C 28.171875 -34.96875 27.929688 -34.867188 27.734375 -34.671875 C 27.535156 -34.472656 27.351562 -34.226562 27.1875 -33.9375 C 27.03125 -33.65625 26.914062 -33.351562 26.84375 -33.03125 C 26.769531 -32.707031 26.734375 -32.421875 26.734375 -32.171875 L 26.734375 -10.96875 C 26.734375 -8.644531 26.445312 -6.738281 25.875 -5.25 C 25.300781 -3.757812 24.507812 -2.582031 23.5 -1.71875 C 22.5 -0.863281 21.328125 -0.273438 19.984375 0.046875 C 18.640625 0.367188 17.210938 0.53125 15.703125 0.53125 C 14.085938 0.53125 12.585938 0.359375 11.203125 0.015625 C 9.828125 -0.316406 8.640625 -0.910156 7.640625 -1.765625 C 6.640625 -2.628906 5.847656 -3.804688 5.265625 -5.296875 C 4.691406 -6.785156 4.40625 -8.660156 4.40625 -10.921875 L 4.40625 -32.171875 C 4.40625 -32.421875 4.367188 -32.707031 4.296875 -33.03125 C 4.234375 -33.351562 4.117188 -33.65625 3.953125 -33.9375 C 3.796875 -34.226562 3.609375 -34.472656 3.390625 -34.671875 C 3.171875 -34.867188 2.9375 -34.96875 2.6875 -34.96875 L 2.421875 -34.96875 Z M 2.421875 -35.5 "/></g></g></g><g fill="#abacac" fill-opacity="1"><g transform="translate(741.236357, 245.898612)"><g><path d="M 8.0625 -0.53125 L 8.34375 -0.53125 L 8.34375 0 L 2.359375 0 L 2.359375 -0.53125 L 2.640625 -0.53125 C 2.890625 -0.53125 3.128906 -0.640625 3.359375 -0.859375 C 3.597656 -1.078125 3.785156 -1.328125 3.921875 -1.609375 C 4.066406 -1.898438 4.179688 -2.210938 4.265625 -2.546875 C 4.359375 -2.890625 4.40625 -3.207031 4.40625 -3.5 L 4.40625 -32.171875 C 4.40625 -32.421875 4.378906 -32.707031 4.328125 -33.03125 C 4.273438 -33.351562 4.175781 -33.65625 4.03125 -33.9375 C 3.882812 -34.226562 3.6875 -34.472656 3.4375 -34.671875 C 3.1875 -34.867188 2.882812 -34.96875 2.53125 -34.96875 L 2.265625 -34.96875 L 2.265625 -35.5 L 7.6875 -35.5 L 27.21875 -4.734375 L 27.21875 -32.171875 C 27.21875 -32.421875 27.171875 -32.707031 27.078125 -33.03125 C 26.992188 -33.351562 26.867188 -33.65625 26.703125 -33.9375 C 26.546875 -34.226562 26.359375 -34.472656 26.140625 -34.671875 C 25.929688 -34.867188 25.679688 -34.96875 25.390625 -34.96875 L 25.125 -34.96875 L 25.125 -35.5 L 31.140625 -35.5 L 31.140625 -34.96875 L 30.875 -34.96875 C 30.59375 -34.96875 30.34375 -34.867188 30.125 -34.671875 C 29.90625 -34.472656 29.710938 -34.226562 29.546875 -33.9375 C 29.390625 -33.65625 29.273438 -33.351562 29.203125 -33.03125 C 29.140625 -32.707031 29.109375 -32.421875 29.109375 -32.171875 L 29.109375 0 L 25.765625 0 L 6.296875 -30.875 L 6.296875 -3.5 C 6.296875 -3.207031 6.332031 -2.890625 6.40625 -2.546875 C 6.476562 -2.210938 6.59375 -1.898438 6.75 -1.609375 C 6.914062 -1.328125 7.101562 -1.078125 7.3125 -0.859375 C 7.53125 -0.640625 7.78125 -0.53125 8.0625 -0.53125 Z M 8.0625 -0.53125 "/></g></g></g><g fill="#abacac" fill-opacity="1"><g transform="translate(775.561648, 245.898612)"><g><path d="M 21.359375 -34.109375 C 18.703125 -34.109375 16.394531 -33.628906 14.4375 -32.671875 C 12.488281 -31.722656 10.867188 -30.488281 9.578125 -28.96875 C 8.285156 -27.445312 7.320312 -25.734375 6.6875 -23.828125 C 6.0625 -21.929688 5.75 -20.050781 5.75 -18.1875 C 5.75 -16.070312 6.160156 -14 6.984375 -11.96875 C 7.816406 -9.945312 8.957031 -8.15625 10.40625 -6.59375 C 11.863281 -5.03125 13.5625 -3.773438 15.5 -2.828125 C 17.4375 -1.878906 19.53125 -1.40625 21.78125 -1.40625 C 22.425781 -1.40625 23.1875 -1.472656 24.0625 -1.609375 C 24.945312 -1.753906 25.816406 -2.03125 26.671875 -2.4375 C 27.535156 -2.851562 28.335938 -3.4375 29.078125 -4.1875 C 29.816406 -4.945312 30.378906 -5.9375 30.765625 -7.15625 L 31.3125 -7.15625 L 31.3125 -1.1875 C 30.769531 -1.1875 30.203125 -1.113281 29.609375 -0.96875 C 29.023438 -0.820312 28.375 -0.660156 27.65625 -0.484375 C 26.71875 -0.234375 25.679688 -0.00390625 24.546875 0.203125 C 23.421875 0.421875 22.234375 0.53125 20.984375 0.53125 C 17.859375 0.53125 15.113281 -0.00390625 12.75 -1.078125 C 10.382812 -2.148438 8.410156 -3.546875 6.828125 -5.265625 C 5.253906 -6.992188 4.070312 -8.941406 3.28125 -11.109375 C 2.488281 -13.273438 2.09375 -15.472656 2.09375 -17.703125 C 2.09375 -19.921875 2.488281 -22.125 3.28125 -24.3125 C 4.070312 -26.5 5.273438 -28.460938 6.890625 -30.203125 C 8.503906 -31.941406 10.53125 -33.347656 12.96875 -34.421875 C 15.40625 -35.503906 18.273438 -36.046875 21.578125 -36.046875 C 22.753906 -36.046875 23.816406 -35.9375 24.765625 -35.71875 C 25.722656 -35.5 26.578125 -35.285156 27.328125 -35.078125 C 27.867188 -34.898438 28.363281 -34.765625 28.8125 -34.671875 C 29.257812 -34.578125 29.695312 -34.53125 30.125 -34.53125 L 30.125 -28.5625 L 29.59375 -28.5625 C 29.375 -29.675781 28.976562 -30.597656 28.40625 -31.328125 C 27.832031 -32.066406 27.160156 -32.632812 26.390625 -33.03125 C 25.617188 -33.425781 24.789062 -33.703125 23.90625 -33.859375 C 23.03125 -34.023438 22.179688 -34.109375 21.359375 -34.109375 Z M 21.359375 -34.109375 "/></g></g></g><g fill="#abacac" fill-opacity="1"><g transform="translate(809.617944, 245.898612)"><g><path d="M 23.890625 -0.53125 L 24.15625 -0.53125 C 24.40625 -0.53125 24.632812 -0.628906 24.84375 -0.828125 C 25.0625 -1.023438 25.25 -1.273438 25.40625 -1.578125 C 25.570312 -1.890625 25.691406 -2.210938 25.765625 -2.546875 C 25.835938 -2.890625 25.875 -3.207031 25.875 -3.5 L 25.875 -18.125 L 8.65625 -18.125 L 8.65625 -3.5 C 8.65625 -3.207031 8.691406 -2.890625 8.765625 -2.546875 C 8.835938 -2.210938 8.945312 -1.898438 9.09375 -1.609375 C 9.238281 -1.328125 9.410156 -1.078125 9.609375 -0.859375 C 9.804688 -0.640625 10.046875 -0.53125 10.328125 -0.53125 L 10.59375 -0.53125 L 10.59375 0 L 3.0625 0 L 3.0625 -0.53125 L 3.328125 -0.53125 C 3.585938 -0.53125 3.820312 -0.628906 4.03125 -0.828125 C 4.25 -1.023438 4.4375 -1.273438 4.59375 -1.578125 C 4.757812 -1.890625 4.878906 -2.210938 4.953125 -2.546875 C 5.023438 -2.890625 5.0625 -3.207031 5.0625 -3.5 L 5.0625 -32.171875 C 5.0625 -32.421875 5.023438 -32.707031 4.953125 -33.03125 C 4.878906 -33.351562 4.769531 -33.65625 4.625 -33.9375 C 4.476562 -34.226562 4.296875 -34.472656 4.078125 -34.671875 C 3.867188 -34.867188 3.617188 -34.96875 3.328125 -34.96875 L 3.0625 -34.96875 L 3.0625 -35.5 L 10.59375 -35.5 L 10.59375 -34.96875 L 10.328125 -34.96875 C 10.046875 -34.96875 9.796875 -34.867188 9.578125 -34.671875 C 9.359375 -34.472656 9.1875 -34.226562 9.0625 -33.9375 C 8.9375 -33.65625 8.835938 -33.351562 8.765625 -33.03125 C 8.691406 -32.707031 8.65625 -32.421875 8.65625 -32.171875 L 8.65625 -20.015625 L 25.875 -20.015625 L 25.875 -32.171875 C 25.875 -32.421875 25.835938 -32.707031 25.765625 -33.03125 C 25.691406 -33.351562 25.582031 -33.65625 25.4375 -33.9375 C 25.300781 -34.226562 25.125 -34.472656 24.90625 -34.671875 C 24.6875 -34.867188 24.4375 -34.96875 24.15625 -34.96875 L 23.890625 -34.96875 L 23.890625 -35.5 L 31.421875 -35.5 L 31.421875 -34.96875 L 31.140625 -34.96875 C 30.859375 -34.96875 30.609375 -34.867188 30.390625 -34.671875 C 30.179688 -34.472656 30.015625 -34.226562 29.890625 -33.9375 C 29.765625 -33.65625 29.664062 -33.351562 29.59375 -33.03125 C 29.519531 -32.707031 29.484375 -32.421875 29.484375 -32.171875 L 29.484375 -3.5 C 29.484375 -3.207031 29.523438 -2.890625 29.609375 -2.546875 C 29.703125 -2.210938 29.820312 -1.898438 29.96875 -1.609375 C 30.113281 -1.328125 30.28125 -1.078125 30.46875 -0.859375 C 30.664062 -0.640625 30.890625 -0.53125 31.140625 -0.53125 L 31.421875 -0.53125 L 31.421875 0 L 23.890625 0 Z M 23.890625 -0.53125 "/></g></g></g><g fill="#abacac" fill-opacity="1"><g transform="translate(843.62043, 245.898612)"><g><path d="M 2.421875 -0.53125 L 2.6875 -0.53125 C 2.976562 -0.53125 3.226562 -0.628906 3.4375 -0.828125 C 3.65625 -1.023438 3.84375 -1.265625 4 -1.546875 C 4.164062 -1.835938 4.289062 -2.144531 4.375 -2.46875 C 4.46875 -2.789062 4.515625 -3.097656 4.515625 -3.390625 L 4.515625 -32.171875 C 4.515625 -32.421875 4.46875 -32.707031 4.375 -33.03125 C 4.289062 -33.351562 4.164062 -33.65625 4 -33.9375 C 3.84375 -34.226562 3.65625 -34.472656 3.4375 -34.671875 C 3.226562 -34.867188 2.976562 -34.96875 2.6875 -34.96875 L 2.421875 -34.96875 L 2.421875 -35.5 L 23.125 -35.5 L 23.125 -30.5 L 22.59375 -30.5 C 22.519531 -31.320312 22.195312 -32.046875 21.625 -32.671875 C 21.050781 -33.304688 20.15625 -33.625 18.9375 -33.625 L 8.125 -33.625 L 8.125 -20.015625 L 17.046875 -20.015625 C 17.878906 -20.015625 18.570312 -20.265625 19.125 -20.765625 C 19.675781 -21.265625 19.953125 -21.859375 19.953125 -22.546875 L 20.5 -22.546875 L 20.5 -15.8125 L 19.953125 -15.8125 C 19.953125 -16.457031 19.679688 -17.015625 19.140625 -17.484375 C 18.609375 -17.953125 17.910156 -18.1875 17.046875 -18.1875 L 8.125 -18.1875 L 8.125 -1.890625 L 19.90625 -1.890625 C 20.582031 -1.890625 21.171875 -2.046875 21.671875 -2.359375 C 22.179688 -2.679688 22.601562 -3.066406 22.9375 -3.515625 C 23.28125 -3.972656 23.53125 -4.457031 23.6875 -4.96875 C 23.851562 -5.488281 23.9375 -5.929688 23.9375 -6.296875 L 24.484375 -6.296875 L 24.484375 0 L 2.421875 0 Z M 2.421875 -0.53125 "/></g></g></g><g fill="#000009" fill-opacity="1"><g transform="translate(870.255207, 245.898612)"><g><path d="M 2.796875 -2.3125 C 2.796875 -3.03125 3.035156 -3.640625 3.515625 -4.140625 C 4.003906 -4.640625 4.609375 -4.890625 5.328125 -4.890625 C 6.046875 -4.890625 6.65625 -4.640625 7.15625 -4.140625 C 7.65625 -3.640625 7.90625 -3.03125 7.90625 -2.3125 C 7.90625 -1.59375 7.65625 -0.988281 7.15625 -0.5 C 6.65625 -0.0195312 6.046875 0.21875 5.328125 0.21875 C 4.609375 0.21875 4.003906 -0.0195312 3.515625 -0.5 C 3.035156 -0.988281 2.796875 -1.59375 2.796875 -2.3125 Z M 2.796875 -2.3125 "/></g></g></g><g fill="#333e43" fill-opacity="1"><g transform="translate(650.640722, 286.130152)"><g><path d="M 6.414062 0 L 6.40625 -4.484375 L 11.128906 -11.679688 L 9.324219 -11.679688 L 5.660156 -5.839844 L 5.652344 -5.839844 L 1.964844 -11.679688 L 0.171875 -11.679688 L 4.894531 -4.472656 L 4.894531 0 Z M 6.414062 0 "/></g></g></g><g fill="#333e43" fill-opacity="1"><g transform="translate(662.122131, 286.130152)"><g><path d="M 5.230469 0.25 C 7.847656 0.25 9.796875 -1.804688 9.796875 -4.378906 C 9.796875 -6.945312 7.839844 -9.007812 5.230469 -9.007812 C 2.628906 -9.007812 0.679688 -6.9375 0.679688 -4.378906 C 0.679688 -1.804688 2.636719 0.25 5.230469 0.25 Z M 5.246094 -1.140625 C 3.503906 -1.140625 2.15625 -2.515625 2.15625 -4.378906 C 2.15625 -6.226562 3.503906 -7.617188 5.246094 -7.617188 C 6.980469 -7.617188 8.320312 -6.226562 8.320312 -4.378906 C 8.320312 -2.515625 6.980469 -1.140625 5.246094 -1.140625 Z M 5.246094 -1.140625 "/></g></g></g><g fill="#333e43" fill-opacity="1"><g transform="translate(672.770859, 286.130152)"><g><path d="M 5.179688 0.25 C 7.460938 0.25 9.152344 -1.039062 9.152344 -4.078125 L 9.152344 -8.757812 L 7.675781 -8.757812 L 7.675781 -4.121094 C 7.675781 -2.148438 6.773438 -1.140625 5.160156 -1.140625 C 3.554688 -1.140625 2.644531 -2.15625 2.644531 -4.121094 L 2.644531 -8.757812 L 1.175781 -8.757812 L 1.175781 -4.078125 C 1.175781 -1.039062 2.851562 0.25 5.179688 0.25 Z M 5.179688 0.25 "/></g></g></g><g fill="#333e43" fill-opacity="1"><g transform="translate(683.273656, 286.130152)"><g><path d="M 2.902344 0 L 2.902344 -4.121094 C 2.902344 -6.234375 4.042969 -7.460938 5.582031 -7.460938 L 6.355469 -7.460938 L 6.355469 -8.757812 L 5.503906 -8.757812 C 4.234375 -8.757812 3.273438 -8.011719 2.84375 -6.800781 L 2.84375 -8.757812 L 1.417969 -8.757812 L 1.417969 0 Z M 2.902344 0 "/></g></g></g><g fill="#333e43" fill-opacity="1"><g transform="translate(690.110952, 286.130152)"><g/></g></g><g fill="#333e43" fill-opacity="1"><g transform="translate(694.630484, 286.130152)"><g><path d="M 6.414062 0 L 6.414062 -1.253906 L 5.09375 -1.253906 C 4.3125 -1.253906 3.519531 -1.546875 3.519531 -3.175781 L 3.519531 -7.460938 L 6.414062 -7.460938 L 6.414062 -8.757812 L 3.519531 -8.757812 L 3.519531 -11.371094 L 2.042969 -11.359375 L 2.042969 -8.757812 L 0.09375 -8.757812 L 0.09375 -7.460938 L 2.042969 -7.460938 L 2.042969 -3.246094 C 2.042969 -0.515625 3.46875 0 4.800781 0 Z M 6.414062 0 "/></g></g></g><g fill="#333e43" fill-opacity="1"><g transform="translate(701.70814, 286.130152)"><g><path d="M 2.902344 0 L 2.902344 -4.121094 C 2.902344 -6.234375 4.042969 -7.460938 5.582031 -7.460938 L 6.355469 -7.460938 L 6.355469 -8.757812 L 5.503906 -8.757812 C 4.234375 -8.757812 3.273438 -8.011719 2.84375 -6.800781 L 2.84375 -8.757812 L 1.417969 -8.757812 L 1.417969 0 Z M 2.902344 0 "/></g></g></g><g fill="#333e43" fill-opacity="1"><g transform="translate(708.545435, 286.130152)"><g><path d="M 5.179688 0.25 C 7.460938 0.25 9.152344 -1.039062 9.152344 -4.078125 L 9.152344 -8.757812 L 7.675781 -8.757812 L 7.675781 -4.121094 C 7.675781 -2.148438 6.773438 -1.140625 5.160156 -1.140625 C 3.554688 -1.140625 2.644531 -2.15625 2.644531 -4.121094 L 2.644531 -8.757812 L 1.175781 -8.757812 L 1.175781 -4.078125 C 1.175781 -1.039062 2.851562 0.25 5.179688 0.25 Z M 5.179688 0.25 "/></g></g></g><g fill="#333e43" fill-opacity="1"><g transform="translate(719.048235, 286.130152)"><g><path d="M 4.335938 0.25 C 6.421875 0.25 7.867188 -0.679688 7.867188 -2.472656 C 7.867188 -4.378906 6.261719 -4.808594 4.65625 -5.058594 C 3.023438 -5.332031 2.550781 -5.640625 2.550781 -6.476562 C 2.550781 -7.179688 3.089844 -7.769531 4.226562 -7.769531 C 5.394531 -7.769531 6.097656 -7.214844 6.140625 -6.378906 L 7.589844 -6.378906 C 7.589844 -7.910156 6.25 -9.007812 4.226562 -9.007812 C 2.136719 -9.007812 1.089844 -7.875 1.089844 -6.441406 C 1.089844 -4.671875 2.523438 -4.097656 4.15625 -3.855469 C 5.53125 -3.632812 6.363281 -3.375 6.363281 -2.394531 C 6.363281 -1.511719 5.675781 -0.953125 4.355469 -0.953125 C 2.910156 -0.953125 2.121094 -1.726562 2.105469 -2.679688 L 0.679688 -2.6875 C 0.679688 -1.195312 1.890625 0.25 4.335938 0.25 Z M 4.335938 0.25 "/></g></g></g><g fill="#333e43" fill-opacity="1"><g transform="translate(727.688235, 286.130152)"><g><path d="M 6.414062 0 L 6.414062 -1.253906 L 5.09375 -1.253906 C 4.3125 -1.253906 3.519531 -1.546875 3.519531 -3.175781 L 3.519531 -7.460938 L 6.414062 -7.460938 L 6.414062 -8.757812 L 3.519531 -8.757812 L 3.519531 -11.371094 L 2.042969 -11.359375 L 2.042969 -8.757812 L 0.09375 -8.757812 L 0.09375 -7.460938 L 2.042969 -7.460938 L 2.042969 -3.246094 C 2.042969 -0.515625 3.46875 0 4.800781 0 Z M 6.414062 0 "/></g></g></g><g fill="#333e43" fill-opacity="1"><g transform="translate(734.765887, 286.130152)"><g><path d="M 9.464844 -4.59375 C 9.464844 -6.945312 7.660156 -9.007812 5.136719 -9.007812 C 2.601562 -9.007812 0.679688 -6.9375 0.679688 -4.378906 C 0.679688 -1.8125 2.601562 0.242188 5.136719 0.242188 C 7.128906 0.242188 8.691406 -1.03125 9.1875 -2.636719 L 7.53125 -2.636719 C 7.144531 -1.648438 6.277344 -1.132812 5.101562 -1.132812 C 3.65625 -1.132812 2.351562 -2.234375 2.171875 -3.992188 L 9.4375 -3.992188 C 9.453125 -4.3125 9.464844 -4.441406 9.464844 -4.59375 Z M 2.242188 -5.296875 C 2.578125 -6.808594 3.796875 -7.617188 5.109375 -7.617188 C 6.605469 -7.617188 7.867188 -6.542969 7.953125 -5.296875 Z M 2.242188 -5.296875 "/></g></g></g><g fill="#333e43" fill-opacity="1"><g transform="translate(744.942478, 286.130152)"><g><path d="M 4.988281 0.25 C 6.578125 0.25 7.8125 -0.679688 8.371094 -1.863281 L 8.371094 0 L 9.789062 0 L 9.789062 -12.089844 L 8.3125 -12.089844 L 8.3125 -7.761719 L 8.347656 -6.914062 C 7.839844 -7.96875 6.636719 -9.007812 4.996094 -9.007812 C 2.480469 -9.007812 0.679688 -6.9375 0.679688 -4.378906 C 0.679688 -1.804688 2.515625 0.25 4.988281 0.25 Z M 5.230469 -1.125 C 3.46875 -1.125 2.148438 -2.542969 2.148438 -4.378906 C 2.148438 -6.234375 3.503906 -7.625 5.230469 -7.625 C 6.957031 -7.625 8.328125 -6.199219 8.328125 -4.378906 C 8.328125 -2.542969 6.945312 -1.125 5.230469 -1.125 Z M 5.230469 -1.125 "/></g></g></g><g fill="#333e43" fill-opacity="1"><g transform="translate(756.320873, 286.130152)"><g/></g></g><g fill="#333e43" fill-opacity="1"><g transform="translate(760.840401, 286.130152)"><g><path d="M 2.902344 0 L 2.902344 -4.121094 C 2.902344 -6.234375 4.042969 -7.460938 5.582031 -7.460938 L 6.355469 -7.460938 L 6.355469 -8.757812 L 5.503906 -8.757812 C 4.234375 -8.757812 3.273438 -8.011719 2.84375 -6.800781 L 2.84375 -8.757812 L 1.417969 -8.757812 L 1.417969 0 Z M 2.902344 0 "/></g></g></g><g fill="#333e43" fill-opacity="1"><g transform="translate(767.677692, 286.130152)"><g><path d="M 9.464844 -4.59375 C 9.464844 -6.945312 7.660156 -9.007812 5.136719 -9.007812 C 2.601562 -9.007812 0.679688 -6.9375 0.679688 -4.378906 C 0.679688 -1.8125 2.601562 0.242188 5.136719 0.242188 C 7.128906 0.242188 8.691406 -1.03125 9.1875 -2.636719 L 7.53125 -2.636719 C 7.144531 -1.648438 6.277344 -1.132812 5.101562 -1.132812 C 3.65625 -1.132812 2.351562 -2.234375 2.171875 -3.992188 L 9.4375 -3.992188 C 9.453125 -4.3125 9.464844 -4.441406 9.464844 -4.59375 Z M 2.242188 -5.296875 C 2.578125 -6.808594 3.796875 -7.617188 5.109375 -7.617188 C 6.605469 -7.617188 7.867188 -6.542969 7.953125 -5.296875 Z M 2.242188 -5.296875 "/></g></g></g><g fill="#333e43" fill-opacity="1"><g transform="translate(777.854284, 286.130152)"><g><path d="M 4.910156 0.25 C 6.476562 0.25 7.789062 -0.566406 8.382812 -1.863281 L 8.382812 0 L 9.796875 0 L 9.796875 -8.757812 L 8.382812 -8.757812 L 8.382812 -6.878906 C 7.789062 -8.183594 6.484375 -9 4.902344 -9 C 2.523438 -9 0.679688 -6.9375 0.679688 -4.378906 C 0.679688 -1.804688 2.515625 0.25 4.910156 0.25 Z M 5.238281 -1.132812 C 3.554688 -1.132812 2.148438 -2.4375 2.148438 -4.378906 C 2.148438 -6.269531 3.539062 -7.617188 5.246094 -7.617188 C 6.945312 -7.617188 8.328125 -6.191406 8.328125 -4.378906 C 8.328125 -2.542969 6.957031 -1.132812 5.238281 -1.132812 Z M 5.238281 -1.132812 "/></g></g></g><g fill="#333e43" fill-opacity="1"><g transform="translate(789.241258, 286.130152)"><g><path d="M 2.894531 0 L 2.894531 -12.109375 L 1.417969 -12.109375 L 1.417969 0 Z M 2.894531 0 "/></g></g></g><g fill="#333e43" fill-opacity="1"><g transform="translate(793.726449, 286.130152)"><g/></g></g><g fill="#333e43" fill-opacity="1"><g transform="translate(798.245977, 286.130152)"><g><path d="M 9.464844 -4.59375 C 9.464844 -6.945312 7.660156 -9.007812 5.136719 -9.007812 C 2.601562 -9.007812 0.679688 -6.9375 0.679688 -4.378906 C 0.679688 -1.8125 2.601562 0.242188 5.136719 0.242188 C 7.128906 0.242188 8.691406 -1.03125 9.1875 -2.636719 L 7.53125 -2.636719 C 7.144531 -1.648438 6.277344 -1.132812 5.101562 -1.132812 C 3.65625 -1.132812 2.351562 -2.234375 2.171875 -3.992188 L 9.4375 -3.992188 C 9.453125 -4.3125 9.464844 -4.441406 9.464844 -4.59375 Z M 2.242188 -5.296875 C 2.578125 -6.808594 3.796875 -7.617188 5.109375 -7.617188 C 6.605469 -7.617188 7.867188 -6.542969 7.953125 -5.296875 Z M 2.242188 -5.296875 "/></g></g></g><g fill="#333e43" fill-opacity="1"><g transform="translate(808.422577, 286.130152)"><g><path d="M 4.335938 0.25 C 6.421875 0.25 7.867188 -0.679688 7.867188 -2.472656 C 7.867188 -4.378906 6.261719 -4.808594 4.65625 -5.058594 C 3.023438 -5.332031 2.550781 -5.640625 2.550781 -6.476562 C 2.550781 -7.179688 3.089844 -7.769531 4.226562 -7.769531 C 5.394531 -7.769531 6.097656 -7.214844 6.140625 -6.378906 L 7.589844 -6.378906 C 7.589844 -7.910156 6.25 -9.007812 4.226562 -9.007812 C 2.136719 -9.007812 1.089844 -7.875 1.089844 -6.441406 C 1.089844 -4.671875 2.523438 -4.097656 4.15625 -3.855469 C 5.53125 -3.632812 6.363281 -3.375 6.363281 -2.394531 C 6.363281 -1.511719 5.675781 -0.953125 4.355469 -0.953125 C 2.910156 -0.953125 2.121094 -1.726562 2.105469 -2.679688 L 0.679688 -2.6875 C 0.679688 -1.195312 1.890625 0.25 4.335938 0.25 Z M 4.335938 0.25 "/></g></g></g><g fill="#333e43" fill-opacity="1"><g transform="translate(817.062573, 286.130152)"><g><path d="M 6.414062 0 L 6.414062 -1.253906 L 5.09375 -1.253906 C 4.3125 -1.253906 3.519531 -1.546875 3.519531 -3.175781 L 3.519531 -7.460938 L 6.414062 -7.460938 L 6.414062 -8.757812 L 3.519531 -8.757812 L 3.519531 -11.371094 L 2.042969 -11.359375 L 2.042969 -8.757812 L 0.09375 -8.757812 L 0.09375 -7.460938 L 2.042969 -7.460938 L 2.042969 -3.246094 C 2.042969 -0.515625 3.46875 0 4.800781 0 Z M 6.414062 0 "/></g></g></g><g fill="#333e43" fill-opacity="1"><g transform="translate(824.140234, 286.130152)"><g><path d="M 4.910156 0.25 C 6.476562 0.25 7.789062 -0.566406 8.382812 -1.863281 L 8.382812 0 L 9.796875 0 L 9.796875 -8.757812 L 8.382812 -8.757812 L 8.382812 -6.878906 C 7.789062 -8.183594 6.484375 -9 4.902344 -9 C 2.523438 -9 0.679688 -6.9375 0.679688 -4.378906 C 0.679688 -1.804688 2.515625 0.25 4.910156 0.25 Z M 5.238281 -1.132812 C 3.554688 -1.132812 2.148438 -2.4375 2.148438 -4.378906 C 2.148438 -6.269531 3.539062 -7.617188 5.246094 -7.617188 C 6.945312 -7.617188 8.328125 -6.191406 8.328125 -4.378906 C 8.328125 -2.542969 6.957031 -1.132812 5.238281 -1.132812 Z M 5.238281 -1.132812 "/></g></g></g><g fill="#333e43" fill-opacity="1"><g transform="translate(835.527208, 286.130152)"><g><path d="M 6.414062 0 L 6.414062 -1.253906 L 5.09375 -1.253906 C 4.3125 -1.253906 3.519531 -1.546875 3.519531 -3.175781 L 3.519531 -7.460938 L 6.414062 -7.460938 L 6.414062 -8.757812 L 3.519531 -8.757812 L 3.519531 -11.371094 L 2.042969 -11.359375 L 2.042969 -8.757812 L 0.09375 -8.757812 L 0.09375 -7.460938 L 2.042969 -7.460938 L 2.042969 -3.246094 C 2.042969 -0.515625 3.46875 0 4.800781 0 Z M 6.414062 0 "/></g></g></g><g fill="#333e43" fill-opacity="1"><g transform="translate(842.604869, 286.130152)"><g><path d="M 9.464844 -4.59375 C 9.464844 -6.945312 7.660156 -9.007812 5.136719 -9.007812 C 2.601562 -9.007812 0.679688 -6.9375 0.679688 -4.378906 C 0.679688 -1.8125 2.601562 0.242188 5.136719 0.242188 C 7.128906 0.242188 8.691406 -1.03125 9.1875 -2.636719 L 7.53125 -2.636719 C 7.144531 -1.648438 6.277344 -1.132812 5.101562 -1.132812 C 3.65625 -1.132812 2.351562 -2.234375 2.171875 -3.992188 L 9.4375 -3.992188 C 9.453125 -4.3125 9.464844 -4.441406 9.464844 -4.59375 Z M 2.242188 -5.296875 C 2.578125 -6.808594 3.796875 -7.617188 5.109375 -7.617188 C 6.605469 -7.617188 7.867188 -6.542969 7.953125 -5.296875 Z M 2.242188 -5.296875 "/></g></g></g><g fill="#333e43" fill-opacity="1"><g transform="translate(852.781469, 286.130152)"><g/></g></g><g fill="#333e43" fill-opacity="1"><g transform="translate(857.300997, 286.130152)"><g><path d="M 4.910156 0.25 C 6.476562 0.25 7.789062 -0.566406 8.382812 -1.863281 L 8.382812 0 L 9.796875 0 L 9.796875 -8.757812 L 8.382812 -8.757812 L 8.382812 -6.878906 C 7.789062 -8.183594 6.484375 -9 4.902344 -9 C 2.523438 -9 0.679688 -6.9375 0.679688 -4.378906 C 0.679688 -1.804688 2.515625 0.25 4.910156 0.25 Z M 5.238281 -1.132812 C 3.554688 -1.132812 2.148438 -2.4375 2.148438 -4.378906 C 2.148438 -6.269531 3.539062 -7.617188 5.246094 -7.617188 C 6.945312 -7.617188 8.328125 -6.191406 8.328125 -4.378906 C 8.328125 -2.542969 6.957031 -1.132812 5.238281 -1.132812 Z M 5.238281 -1.132812 "/></g></g></g><g fill="#333e43" fill-opacity="1"><g transform="translate(868.687972, 286.130152)"><g><path d="M 5.253906 3.296875 C 8.320312 3.296875 9.796875 1.261719 9.796875 -1.175781 L 9.796875 -8.757812 L 8.382812 -8.757812 L 8.382812 -6.878906 C 7.855469 -8.039062 6.613281 -9 4.9375 -9 C 2.5 -9 0.679688 -6.9375 0.679688 -4.542969 C 0.679688 -2.128906 2.515625 -0.164062 4.980469 -0.164062 C 6.464844 -0.164062 7.761719 -0.882812 8.382812 -2.214844 L 8.382812 -1.132812 C 8.382812 0.5 7.53125 2.035156 5.253906 2.035156 C 3.347656 2.035156 2.617188 1.109375 2.449219 0.0507812 L 1.046875 0.0507812 C 1.140625 1.648438 2.308594 3.296875 5.253906 3.296875 Z M 5.238281 -1.46875 C 3.519531 -1.46875 2.148438 -2.800781 2.148438 -4.542969 C 2.148438 -6.304688 3.519531 -7.617188 5.246094 -7.617188 C 6.964844 -7.617188 8.328125 -6.207031 8.328125 -4.542969 C 8.328125 -2.859375 6.957031 -1.46875 5.238281 -1.46875 Z M 5.238281 -1.46875 "/></g></g></g><g fill="#333e43" fill-opacity="1"><g transform="translate(880.074946, 286.130152)"><g><path d="M 9.464844 -4.59375 C 9.464844 -6.945312 7.660156 -9.007812 5.136719 -9.007812 C 2.601562 -9.007812 0.679688 -6.9375 0.679688 -4.378906 C 0.679688 -1.8125 2.601562 0.242188 5.136719 0.242188 C 7.128906 0.242188 8.691406 -1.03125 9.1875 -2.636719 L 7.53125 -2.636719 C 7.144531 -1.648438 6.277344 -1.132812 5.101562 -1.132812 C 3.65625 -1.132812 2.351562 -2.234375 2.171875 -3.992188 L 9.4375 -3.992188 C 9.453125 -4.3125 9.464844 -4.441406 9.464844 -4.59375 Z M 2.242188 -5.296875 C 2.578125 -6.808594 3.796875 -7.617188 5.109375 -7.617188 C 6.605469 -7.617188 7.867188 -6.542969 7.953125 -5.296875 Z M 2.242188 -5.296875 "/></g></g></g><g fill="#333e43" fill-opacity="1"><g transform="translate(890.251547, 286.130152)"><g><path d="M 2.894531 0 L 2.894531 -4.601562 C 2.894531 -6.476562 4.226562 -7.625 5.683594 -7.625 C 7.203125 -7.625 8.132812 -6.742188 8.132812 -4.722656 L 8.132812 0 L 9.609375 0 L 9.609375 -4.75 C 9.609375 -7.546875 8.390625 -9.007812 6.0625 -9.007812 C 4.578125 -9.007812 3.332031 -8.191406 2.832031 -7.066406 L 2.832031 -8.757812 L 1.417969 -8.757812 L 1.417969 0 Z M 2.894531 0 "/></g></g></g><g fill="#333e43" fill-opacity="1"><g transform="translate(901.346664, 286.130152)"><g><path d="M 6.414062 0 L 6.414062 -1.253906 L 5.09375 -1.253906 C 4.3125 -1.253906 3.519531 -1.546875 3.519531 -3.175781 L 3.519531 -7.460938 L 6.414062 -7.460938 L 6.414062 -8.757812 L 3.519531 -8.757812 L 3.519531 -11.371094 L 2.042969 -11.359375 L 2.042969 -8.757812 L 0.09375 -8.757812 L 0.09375 -7.460938 L 2.042969 -7.460938 L 2.042969 -3.246094 C 2.042969 -0.515625 3.46875 0 4.800781 0 Z M 6.414062 0 "/></g></g></g><g fill="#333e43" fill-opacity="1"><g transform="translate(908.424325, 286.130152)"><g><path d="M 2.214844 0.179688 C 2.789062 0.179688 3.1875 -0.230469 3.1875 -0.738281 C 3.1875 -1.238281 2.789062 -1.65625 2.214844 -1.65625 C 1.640625 -1.65625 1.246094 -1.238281 1.246094 -0.738281 C 1.246094 -0.230469 1.640625 0.179688 2.214844 0.179688 Z M 2.214844 0.179688 "/></g></g></g></svg>