<svg xmlns="http://www.w3.org/2000/svg" xmlns:xlink="http://www.w3.org/1999/xlink" width="1366" zoomAndPan="magnify" viewBox="0 0 1024.5 576" height="768" preserveAspectRatio="xMidYMid meet" version="1.0"><defs><g/><clipPath id="20d2f4fd50"><path d="M 0 0.140625 L 1024 0.140625 L 1024 575.859375 L 0 575.859375 Z M 0 0.140625 " clip-rule="nonzero"/></clipPath></defs><g clip-path="url(#20d2f4fd50)"><path fill="#ffffff" d="M 0 0.140625 L 1024.5 0.140625 L 1024.5 576.140625 L 0 576.140625 Z M 0 0.140625 " fill-opacity="1" fill-rule="nonzero"/><path fill="#d8d8d8" d="M 0 0.140625 L 1024.5 0.140625 L 1024.5 576.140625 L 0 576.140625 Z M 0 0.140625 " fill-opacity="1" fill-rule="nonzero"/></g><g fill="#ffffff" fill-opacity="1"><g transform="translate(347.327412, 92.963158)"><g><path d="M 26.59375 -42.484375 C 23.289062 -42.484375 20.421875 -41.890625 17.984375 -40.703125 C 15.554688 -39.515625 13.535156 -37.972656 11.921875 -36.078125 C 10.316406 -34.179688 9.125 -32.046875 8.34375 -29.671875 C 7.5625 -27.304688 7.171875 -24.960938 7.171875 -22.640625 C 7.171875 -20.003906 7.679688 -17.425781 8.703125 -14.90625 C 9.734375 -12.382812 11.148438 -10.148438 12.953125 -8.203125 C 14.765625 -6.265625 16.875 -4.703125 19.28125 -3.515625 C 21.695312 -2.328125 24.316406 -1.734375 27.140625 -1.734375 C 27.941406 -1.734375 28.890625 -1.820312 29.984375 -2 C 31.078125 -2.1875 32.160156 -2.535156 33.234375 -3.046875 C 34.304688 -3.554688 35.300781 -4.28125 36.21875 -5.21875 C 37.132812 -6.164062 37.835938 -7.394531 38.328125 -8.90625 L 39 -8.90625 L 39 -1.46875 C 38.320312 -1.46875 37.613281 -1.378906 36.875 -1.203125 C 36.144531 -1.023438 35.332031 -0.828125 34.4375 -0.609375 C 33.28125 -0.296875 31.992188 -0.00390625 30.578125 0.265625 C 29.171875 0.535156 27.6875 0.671875 26.125 0.671875 C 22.238281 0.671875 18.820312 0.00390625 15.875 -1.328125 C 12.925781 -2.671875 10.46875 -4.414062 8.5 -6.5625 C 6.539062 -8.707031 5.066406 -11.128906 4.078125 -13.828125 C 3.097656 -16.535156 2.609375 -19.273438 2.609375 -22.046875 C 2.609375 -24.816406 3.097656 -27.5625 4.078125 -30.28125 C 5.066406 -33.007812 6.566406 -35.457031 8.578125 -37.625 C 10.585938 -39.789062 13.109375 -41.539062 16.140625 -42.875 C 19.179688 -44.21875 22.753906 -44.890625 26.859375 -44.890625 C 28.335938 -44.890625 29.664062 -44.753906 30.84375 -44.484375 C 32.03125 -44.222656 33.09375 -43.957031 34.03125 -43.6875 C 34.707031 -43.457031 35.320312 -43.285156 35.875 -43.171875 C 36.4375 -43.066406 36.984375 -43.015625 37.515625 -43.015625 L 37.515625 -35.578125 L 36.84375 -35.578125 C 36.582031 -36.960938 36.09375 -38.113281 35.375 -39.03125 C 34.65625 -39.945312 33.816406 -40.648438 32.859375 -41.140625 C 31.898438 -41.628906 30.875 -41.972656 29.78125 -42.171875 C 28.6875 -42.378906 27.625 -42.484375 26.59375 -42.484375 Z M 26.59375 -42.484375 "/></g></g></g><g fill="#ffffff" fill-opacity="1"><g transform="translate(389.065944, 92.963158)"><g><path d="M 17.078125 0.46875 C 14.847656 0.46875 12.835938 0.101562 11.046875 -0.625 C 9.265625 -1.363281 7.738281 -2.367188 6.46875 -3.640625 C 5.195312 -4.921875 4.210938 -6.429688 3.515625 -8.171875 C 2.828125 -9.910156 2.484375 -11.8125 2.484375 -13.875 C 2.484375 -16.0625 2.859375 -18.054688 3.609375 -19.859375 C 4.367188 -21.671875 5.421875 -23.222656 6.765625 -24.515625 C 8.109375 -25.816406 9.691406 -26.820312 11.515625 -27.53125 C 13.347656 -28.25 15.335938 -28.609375 17.484375 -28.609375 C 19.628906 -28.609375 21.59375 -28.257812 23.375 -27.5625 C 25.164062 -26.875 26.707031 -25.90625 28 -24.65625 C 29.300781 -23.40625 30.304688 -21.921875 31.015625 -20.203125 C 31.734375 -18.484375 32.09375 -16.59375 32.09375 -14.53125 C 32.09375 -12.613281 31.769531 -10.75 31.125 -8.9375 C 30.476562 -7.132812 29.515625 -5.539062 28.234375 -4.15625 C 26.960938 -2.769531 25.398438 -1.648438 23.546875 -0.796875 C 21.691406 0.046875 19.535156 0.46875 17.078125 0.46875 Z M 16.6875 -26.390625 C 15.070312 -26.304688 13.648438 -25.914062 12.421875 -25.21875 C 11.203125 -24.53125 10.175781 -23.640625 9.34375 -22.546875 C 8.519531 -21.453125 7.894531 -20.210938 7.46875 -18.828125 C 7.039062 -17.441406 6.828125 -16.035156 6.828125 -14.609375 C 6.828125 -12.953125 7.082031 -11.351562 7.59375 -9.8125 C 8.113281 -8.269531 8.851562 -6.894531 9.8125 -5.6875 C 10.769531 -4.488281 11.921875 -3.53125 13.265625 -2.8125 C 14.609375 -2.09375 16.101562 -1.734375 17.75 -1.734375 C 19.40625 -1.734375 20.867188 -2.09375 22.140625 -2.8125 C 23.410156 -3.53125 24.46875 -4.457031 25.3125 -5.59375 C 26.164062 -6.726562 26.804688 -8.007812 27.234375 -9.4375 C 27.660156 -10.875 27.875 -12.304688 27.875 -13.734375 C 27.875 -15.210938 27.648438 -16.695312 27.203125 -18.1875 C 26.753906 -19.6875 26.0625 -21.050781 25.125 -22.28125 C 24.1875 -23.507812 23.015625 -24.5 21.609375 -25.25 C 20.203125 -26.007812 18.5625 -26.390625 16.6875 -26.390625 Z M 16.6875 -26.390625 "/></g></g></g><g fill="#ffffff" fill-opacity="1"><g transform="translate(424.104865, 92.963158)"><g><path d="M 29.953125 -4.359375 C 29.953125 -3.992188 29.992188 -3.597656 30.078125 -3.171875 C 30.171875 -2.753906 30.316406 -2.363281 30.515625 -2 C 30.710938 -1.644531 30.9375 -1.332031 31.1875 -1.0625 C 31.4375 -0.800781 31.738281 -0.671875 32.09375 -0.671875 L 32.09375 0 L 23.453125 0 L 23.453125 -0.671875 C 23.765625 -0.671875 24.050781 -0.800781 24.3125 -1.0625 C 24.582031 -1.332031 24.816406 -1.644531 25.015625 -2 C 25.222656 -2.363281 25.367188 -2.753906 25.453125 -3.171875 C 25.546875 -3.597656 25.59375 -3.992188 25.59375 -4.359375 L 25.59375 -16.8125 C 25.59375 -18.425781 25.367188 -19.832031 24.921875 -21.03125 C 24.472656 -22.238281 23.867188 -23.242188 23.109375 -24.046875 C 22.347656 -24.859375 21.488281 -25.453125 20.53125 -25.828125 C 19.570312 -26.203125 18.601562 -26.390625 17.625 -26.390625 C 16.632812 -26.390625 15.660156 -26.1875 14.703125 -25.78125 C 13.742188 -25.382812 12.894531 -24.863281 12.15625 -24.21875 C 11.425781 -23.570312 10.820312 -22.8125 10.34375 -21.9375 C 9.875 -21.070312 9.640625 -20.171875 9.640625 -19.234375 L 9.640625 -4.359375 C 9.640625 -3.992188 9.6875 -3.597656 9.78125 -3.171875 C 9.875 -2.753906 10.019531 -2.363281 10.21875 -2 C 10.414062 -1.644531 10.632812 -1.332031 10.875 -1.0625 C 11.125 -0.800781 11.429688 -0.671875 11.796875 -0.671875 L 11.796875 0 L 3.078125 0 L 3.078125 -0.671875 C 3.390625 -0.671875 3.679688 -0.800781 3.953125 -1.0625 C 4.222656 -1.332031 4.457031 -1.644531 4.65625 -2 C 4.851562 -2.363281 4.992188 -2.753906 5.078125 -3.171875 C 5.171875 -3.597656 5.21875 -3.992188 5.21875 -4.359375 L 5.21875 -22.84375 C 5.21875 -23.601562 5.109375 -24.328125 4.890625 -25.015625 C 4.671875 -25.710938 4.023438 -26.082031 2.953125 -26.125 L 2.953125 -26.734375 L 9.640625 -28.875 L 9.640625 -25.1875 C 9.953125 -25.550781 10.351562 -25.941406 10.84375 -26.359375 C 11.34375 -26.785156 11.9375 -27.1875 12.625 -27.5625 C 13.320312 -27.945312 14.128906 -28.257812 15.046875 -28.5 C 15.960938 -28.75 17.046875 -28.875 18.296875 -28.875 C 20.390625 -28.875 22.171875 -28.515625 23.640625 -27.796875 C 25.117188 -27.085938 26.328125 -26.160156 27.265625 -25.015625 C 28.203125 -23.878906 28.882812 -22.628906 29.3125 -21.265625 C 29.738281 -19.910156 29.953125 -18.582031 29.953125 -17.28125 Z M 29.953125 -4.359375 "/></g></g></g><g fill="#ffffff" fill-opacity="1"><g transform="translate(459.746753, 92.963158)"><g><path d="M 9.578125 -25.859375 L 9.578125 -9.71875 C 9.578125 -8.550781 9.597656 -7.5 9.640625 -6.5625 C 9.691406 -5.625 9.804688 -4.84375 9.984375 -4.21875 C 10.160156 -3.59375 10.425781 -3.113281 10.78125 -2.78125 C 11.144531 -2.445312 11.640625 -2.28125 12.265625 -2.28125 C 13.203125 -2.28125 14.082031 -2.722656 14.90625 -3.609375 C 15.726562 -4.503906 16.253906 -5.578125 16.484375 -6.828125 L 17.078125 -6.828125 L 17.078125 -1.9375 C 16.679688 -1.9375 16.347656 -1.804688 16.078125 -1.546875 C 15.722656 -1.234375 15.21875 -0.894531 14.5625 -0.53125 C 13.914062 -0.175781 12.945312 0 11.65625 0 C 10.050781 0 8.800781 -0.3125 7.90625 -0.9375 C 7.007812 -1.5625 6.359375 -2.382812 5.953125 -3.40625 C 5.554688 -4.4375 5.320312 -5.578125 5.25 -6.828125 C 5.1875 -8.078125 5.15625 -9.351562 5.15625 -10.65625 L 5.15625 -25.859375 L 1.40625 -25.859375 L 1.40625 -28.140625 L 5.15625 -28.140625 L 5.15625 -34.109375 C 5.15625 -34.859375 5.054688 -35.554688 4.859375 -36.203125 C 4.660156 -36.859375 4 -37.207031 2.875 -37.25 L 2.875 -37.921875 L 9.578125 -40.0625 L 9.578125 -28.140625 L 17.078125 -28.140625 L 17.078125 -25.859375 Z M 9.578125 -25.859375 "/></g></g></g><g fill="#ffffff" fill-opacity="1"><g transform="translate(478.840622, 92.963158)"><g><path d="M 20.703125 0 L 20.703125 -3.421875 L 20.375 -3.078125 C 19.25 -1.960938 17.960938 -1.09375 16.515625 -0.46875 C 15.066406 0.15625 13.3125 0.46875 11.25 0.46875 C 9.6875 0.46875 8.347656 0.289062 7.234375 -0.0625 C 6.117188 -0.425781 5.203125 -0.929688 4.484375 -1.578125 C 3.773438 -2.222656 3.25 -2.96875 2.90625 -3.8125 C 2.570312 -4.664062 2.40625 -5.5625 2.40625 -6.5 C 2.40625 -8.019531 2.816406 -9.359375 3.640625 -10.515625 C 4.472656 -11.679688 5.671875 -12.707031 7.234375 -13.59375 C 8.796875 -14.488281 10.703125 -15.304688 12.953125 -16.046875 C 15.210938 -16.785156 17.796875 -17.507812 20.703125 -18.21875 C 20.609375 -19.96875 20.25 -21.375 19.625 -22.4375 C 19 -23.507812 18.257812 -24.347656 17.40625 -24.953125 C 16.5625 -25.554688 15.671875 -25.957031 14.734375 -26.15625 C 13.796875 -26.363281 12.992188 -26.46875 12.328125 -26.46875 C 11.171875 -26.46875 10.15625 -26.285156 9.28125 -25.921875 C 8.40625 -25.566406 7.644531 -25.109375 7 -24.546875 C 6.351562 -23.992188 5.804688 -23.394531 5.359375 -22.75 C 4.910156 -22.101562 4.550781 -21.488281 4.28125 -20.90625 L 3.6875 -20.90625 L 3.6875 -25.796875 C 4.039062 -25.835938 4.375 -25.945312 4.6875 -26.125 C 5 -26.300781 5.378906 -26.484375 5.828125 -26.671875 C 6.492188 -26.929688 7.40625 -27.316406 8.5625 -27.828125 C 9.726562 -28.347656 11.363281 -28.609375 13.46875 -28.609375 C 15.925781 -28.609375 17.910156 -28.296875 19.421875 -27.671875 C 20.941406 -27.046875 22.113281 -26.21875 22.9375 -25.1875 C 23.769531 -24.164062 24.316406 -22.992188 24.578125 -21.671875 C 24.847656 -20.359375 24.984375 -19.007812 24.984375 -17.625 L 24.984375 -4.359375 C 24.984375 -3.460938 25.1875 -2.625 25.59375 -1.84375 C 26 -1.0625 26.535156 -0.671875 27.203125 -0.671875 L 27.203125 0 Z M 20.703125 -6.359375 L 20.703125 -15.953125 L 20.03125 -15.8125 C 18.957031 -15.539062 17.648438 -15.179688 16.109375 -14.734375 C 14.566406 -14.285156 13.101562 -13.703125 11.71875 -12.984375 C 10.332031 -12.273438 9.148438 -11.429688 8.171875 -10.453125 C 7.191406 -9.472656 6.703125 -8.332031 6.703125 -7.03125 C 6.703125 -5.601562 7.28125 -4.421875 8.4375 -3.484375 C 9.601562 -2.546875 11.125 -2.078125 13 -2.078125 C 14.46875 -2.078125 15.757812 -2.398438 16.875 -3.046875 C 18 -3.691406 19.03125 -4.53125 19.96875 -5.5625 Z M 20.703125 -6.359375 "/></g></g></g><g fill="#ffffff" fill-opacity="1"><g transform="translate(509.45781, 92.963158)"><g><path d="M 27.734375 -2.40625 C 27.378906 -2.40625 27.046875 -2.328125 26.734375 -2.171875 C 26.421875 -2.015625 26.0625 -1.828125 25.65625 -1.609375 C 24.894531 -1.160156 23.929688 -0.703125 22.765625 -0.234375 C 21.609375 0.234375 20.09375 0.46875 18.21875 0.46875 C 15.945312 0.46875 13.835938 0.101562 11.890625 -0.625 C 9.953125 -1.363281 8.273438 -2.390625 6.859375 -3.703125 C 5.453125 -5.023438 4.359375 -6.566406 3.578125 -8.328125 C 2.796875 -10.097656 2.40625 -12.007812 2.40625 -14.0625 C 2.40625 -15.988281 2.75 -17.820312 3.4375 -19.5625 C 4.132812 -21.300781 5.128906 -22.84375 6.421875 -24.1875 C 7.722656 -25.53125 9.320312 -26.601562 11.21875 -27.40625 C 13.113281 -28.207031 15.269531 -28.609375 17.6875 -28.609375 C 19.34375 -28.609375 20.679688 -28.414062 21.703125 -28.03125 C 22.734375 -27.65625 23.609375 -27.289062 24.328125 -26.9375 C 24.722656 -26.707031 25.109375 -26.523438 25.484375 -26.390625 C 25.867188 -26.265625 26.265625 -26.203125 26.671875 -26.203125 L 26.671875 -21.109375 L 26 -21.109375 C 25.769531 -21.953125 25.363281 -22.695312 24.78125 -23.34375 C 24.207031 -24 23.539062 -24.546875 22.78125 -24.984375 C 22.019531 -25.429688 21.191406 -25.765625 20.296875 -25.984375 C 19.410156 -26.210938 18.539062 -26.328125 17.6875 -26.328125 C 15.851562 -26.328125 14.242188 -26.003906 12.859375 -25.359375 C 11.472656 -24.710938 10.332031 -23.863281 9.4375 -22.8125 C 8.550781 -21.757812 7.882812 -20.5625 7.4375 -19.21875 C 6.988281 -17.882812 6.765625 -16.503906 6.765625 -15.078125 C 6.765625 -13.421875 7.03125 -11.800781 7.5625 -10.21875 C 8.101562 -8.632812 8.875 -7.21875 9.875 -5.96875 C 10.882812 -4.71875 12.101562 -3.710938 13.53125 -2.953125 C 14.957031 -2.191406 16.566406 -1.8125 18.359375 -1.8125 C 19.609375 -1.8125 20.757812 -1.988281 21.8125 -2.34375 C 22.863281 -2.695312 23.753906 -3.164062 24.484375 -3.75 C 25.222656 -4.332031 25.816406 -4.96875 26.265625 -5.65625 C 26.710938 -6.351562 26.976562 -7.015625 27.0625 -7.640625 L 27.734375 -7.640625 Z M 27.734375 -2.40625 "/></g></g></g><g fill="#ffffff" fill-opacity="1"><g transform="translate(538.668085, 92.963158)"><g><path d="M 9.578125 -25.859375 L 9.578125 -9.71875 C 9.578125 -8.550781 9.597656 -7.5 9.640625 -6.5625 C 9.691406 -5.625 9.804688 -4.84375 9.984375 -4.21875 C 10.160156 -3.59375 10.425781 -3.113281 10.78125 -2.78125 C 11.144531 -2.445312 11.640625 -2.28125 12.265625 -2.28125 C 13.203125 -2.28125 14.082031 -2.722656 14.90625 -3.609375 C 15.726562 -4.503906 16.253906 -5.578125 16.484375 -6.828125 L 17.078125 -6.828125 L 17.078125 -1.9375 C 16.679688 -1.9375 16.347656 -1.804688 16.078125 -1.546875 C 15.722656 -1.234375 15.21875 -0.894531 14.5625 -0.53125 C 13.914062 -0.175781 12.945312 0 11.65625 0 C 10.050781 0 8.800781 -0.3125 7.90625 -0.9375 C 7.007812 -1.5625 6.359375 -2.382812 5.953125 -3.40625 C 5.554688 -4.4375 5.320312 -5.578125 5.25 -6.828125 C 5.1875 -8.078125 5.15625 -9.351562 5.15625 -10.65625 L 5.15625 -25.859375 L 1.40625 -25.859375 L 1.40625 -28.140625 L 5.15625 -28.140625 L 5.15625 -34.109375 C 5.15625 -34.859375 5.054688 -35.554688 4.859375 -36.203125 C 4.660156 -36.859375 4 -37.207031 2.875 -37.25 L 2.875 -37.921875 L 9.578125 -40.0625 L 9.578125 -28.140625 L 17.078125 -28.140625 L 17.078125 -25.859375 Z M 9.578125 -25.859375 "/></g></g></g><g fill="#ffffff" fill-opacity="1"><g transform="translate(557.761943, 92.963158)"><g/></g></g><g fill="#ffffff" fill-opacity="1"><g transform="translate(575.180902, 92.963158)"><g><path d="M 39.0625 -0.671875 L 39.390625 -0.671875 C 39.703125 -0.671875 39.992188 -0.800781 40.265625 -1.0625 C 40.535156 -1.332031 40.769531 -1.644531 40.96875 -2 C 41.164062 -2.363281 41.3125 -2.753906 41.40625 -3.171875 C 41.5 -3.597656 41.546875 -3.992188 41.546875 -4.359375 L 41.546875 -39.59375 L 24.25 0.734375 L 7.84375 -37.515625 L 7.84375 -4.359375 C 7.84375 -3.992188 7.882812 -3.597656 7.96875 -3.171875 C 8.0625 -2.753906 8.207031 -2.363281 8.40625 -2 C 8.601562 -1.644531 8.835938 -1.332031 9.109375 -1.0625 C 9.378906 -0.800781 9.691406 -0.671875 10.046875 -0.671875 L 10.390625 -0.671875 L 10.390625 0 L 3.078125 0 L 3.078125 -0.671875 L 3.421875 -0.671875 C 3.734375 -0.671875 4.019531 -0.800781 4.28125 -1.0625 C 4.550781 -1.332031 4.773438 -1.644531 4.953125 -2 C 5.128906 -2.363281 5.265625 -2.753906 5.359375 -3.171875 C 5.453125 -3.597656 5.5 -3.992188 5.5 -4.359375 L 5.5 -40.0625 C 5.5 -40.375 5.453125 -40.726562 5.359375 -41.125 C 5.265625 -41.53125 5.128906 -41.910156 4.953125 -42.265625 C 4.773438 -42.628906 4.550781 -42.929688 4.28125 -43.171875 C 4.019531 -43.421875 3.734375 -43.546875 3.421875 -43.546875 L 3.078125 -43.546875 L 3.078125 -44.21875 L 9.921875 -44.21875 L 25.453125 -7.578125 L 41 -44.21875 L 48.578125 -44.21875 L 48.578125 -43.546875 L 48.234375 -43.546875 C 47.878906 -43.546875 47.566406 -43.421875 47.296875 -43.171875 C 47.035156 -42.929688 46.800781 -42.628906 46.59375 -42.265625 C 46.394531 -41.910156 46.25 -41.53125 46.15625 -41.125 C 46.070312 -40.726562 46.03125 -40.375 46.03125 -40.0625 L 46.03125 -4.359375 C 46.03125 -3.992188 46.070312 -3.597656 46.15625 -3.171875 C 46.25 -2.753906 46.394531 -2.363281 46.59375 -2 C 46.800781 -1.644531 47.035156 -1.332031 47.296875 -1.0625 C 47.566406 -0.800781 47.878906 -0.671875 48.234375 -0.671875 L 48.578125 -0.671875 L 48.578125 0 L 39.0625 0 Z M 39.0625 -0.671875 "/></g></g></g><g fill="#ffffff" fill-opacity="1"><g transform="translate(627.236819, 92.963158)"><g><path d="M 6.703125 -13.53125 C 6.878906 -11.96875 7.253906 -10.484375 7.828125 -9.078125 C 8.410156 -7.671875 9.179688 -6.429688 10.140625 -5.359375 C 11.109375 -4.285156 12.285156 -3.425781 13.671875 -2.78125 C 15.054688 -2.132812 16.660156 -1.8125 18.484375 -1.8125 C 19.472656 -1.8125 20.515625 -1.957031 21.609375 -2.25 C 22.703125 -2.539062 23.71875 -2.953125 24.65625 -3.484375 C 25.59375 -4.015625 26.429688 -4.671875 27.171875 -5.453125 C 27.910156 -6.242188 28.410156 -7.128906 28.671875 -8.109375 L 29.28125 -8.109375 L 29.28125 -3.078125 C 29.007812 -3.078125 28.707031 -2.988281 28.375 -2.8125 C 28.039062 -2.632812 27.648438 -2.410156 27.203125 -2.140625 C 26.304688 -1.609375 25.097656 -1.039062 23.578125 -0.4375 C 22.066406 0.164062 20.054688 0.46875 17.546875 0.46875 C 15.535156 0.46875 13.625 0.179688 11.8125 -0.390625 C 10.007812 -0.972656 8.414062 -1.867188 7.03125 -3.078125 C 5.644531 -4.285156 4.539062 -5.828125 3.71875 -7.703125 C 2.894531 -9.578125 2.484375 -11.8125 2.484375 -14.40625 C 2.484375 -16.0625 2.757812 -17.734375 3.3125 -19.421875 C 3.875 -21.117188 4.722656 -22.648438 5.859375 -24.015625 C 7.003906 -25.378906 8.46875 -26.484375 10.25 -27.328125 C 12.039062 -28.179688 14.1875 -28.609375 16.6875 -28.609375 C 18.914062 -28.609375 20.867188 -28.226562 22.546875 -27.46875 C 24.222656 -26.707031 25.609375 -25.65625 26.703125 -24.3125 C 27.796875 -22.976562 28.609375 -21.394531 29.140625 -19.5625 C 29.679688 -17.726562 29.953125 -15.71875 29.953125 -13.53125 Z M 16.421875 -26.390625 C 14.847656 -26.390625 13.492188 -26.078125 12.359375 -25.453125 C 11.222656 -24.828125 10.25 -24.023438 9.4375 -23.046875 C 8.632812 -22.066406 8.007812 -20.953125 7.5625 -19.703125 C 7.125 -18.453125 6.835938 -17.203125 6.703125 -15.953125 L 25.796875 -15.953125 C 25.753906 -17.242188 25.519531 -18.515625 25.09375 -19.765625 C 24.664062 -21.015625 24.070312 -22.128906 23.3125 -23.109375 C 22.550781 -24.097656 21.585938 -24.890625 20.421875 -25.484375 C 19.265625 -26.085938 17.929688 -26.390625 16.421875 -26.390625 Z M 16.421875 -26.390625 "/></g></g></g><g fill="#ffffff" fill-opacity="1"><g transform="translate(659.737532, 92.963158)"><g/></g></g></svg>